<svg width="323" height="53" viewBox="0 0 323 53" fill="none" xmlns="http://www.w3.org/2000/svg">
<path d="M21.3333 36C14.2133 36 -7.62939e-06 39.5733 -7.62939e-06 46.6667V52H42.6667V46.6667C42.6667 39.5733 28.4533 36 21.3333 36Z" fill="black"/>
<path d="M33.75 19.3117C33.75 11.5342 27.715 6.25 21 6.25C14.3558 6.25 8.25001 11.4208 8.25001 19.3967C7.40001 19.8783 6.83334 20.785 6.83334 21.8333V24.6667C6.83334 26.225 8.10834 27.5 9.66668 27.5H11.0833V18.8583C11.0833 13.3758 15.5175 8.94167 21 8.94167C26.4825 8.94167 30.9167 13.3758 30.9167 18.8583V28.9167H19.5833V31.75H30.9167C32.475 31.75 33.75 30.475 33.75 28.9167V27.1883C34.5858 26.7492 35.1667 25.885 35.1667 24.865V21.6067C35.1667 20.615 34.5858 19.7508 33.75 19.3117Z" fill="black"/>
<path d="M16.75 21.8333C17.5324 21.8333 18.1667 21.1991 18.1667 20.4167C18.1667 19.6343 17.5324 19 16.75 19C15.9676 19 15.3333 19.6343 15.3333 20.4167C15.3333 21.1991 15.9676 21.8333 16.75 21.8333Z" fill="black"/>
<path d="M25.25 21.8333C26.0324 21.8333 26.6667 21.1991 26.6667 20.4167C26.6667 19.6343 26.0324 19 25.25 19C24.4676 19 23.8333 19.6343 23.8333 20.4167C23.8333 21.1991 24.4676 21.8333 25.25 21.8333Z" fill="black"/>
<path d="M29.5 17.6258C28.82 13.5883 25.3067 10.5 21.0708 10.5C16.7783 10.5 12.16 14.0558 12.5283 19.6375C16.0275 18.2067 18.6625 15.09 19.4133 11.2933C21.2692 15.0192 25.08 17.5833 29.5 17.6258Z" fill="black"/>
<path d="M146.253 40.3412L163.667 26.5258L141.654 23.4357L143.433 30.0126L158.032 28.0587L144.455 33.7694L146.253 40.3412Z" fill="black"/>
<path d="M72 50C96 50 114 24.7805 114 13.5C114 1.99998 98.5 -3 91 8C83.655 18.7727 96.1142 33.8879 112 29C125 25 133.5 35.5 139.5 34" stroke="black" stroke-width="2"/>
<path d="M197.75 36.25C190.407 36.25 175.75 39.935 175.75 47.25V52.75H219.75V47.25C219.75 39.935 205.093 36.25 197.75 36.25Z" fill="black"/>
<path d="M186.035 19.75H209.493C210.235 19.75 210.84 19.145 210.84 18.4025V18.3475C210.84 17.605 210.235 17 209.493 17H208.75C208.75 12.93 206.523 9.4375 203.25 7.5125V10.125C203.25 10.895 202.645 11.5 201.875 11.5C201.105 11.5 200.5 10.895 200.5 10.125V6.385C199.62 6.165 198.712 6 197.75 6C196.788 6 195.88 6.165 195 6.385V10.125C195 10.895 194.395 11.5 193.625 11.5C192.855 11.5 192.25 10.895 192.25 10.125V7.5125C188.977 9.4375 186.75 12.93 186.75 17H186.035C185.292 17 184.688 17.605 184.688 18.3475V18.43C184.688 19.145 185.292 19.75 186.035 19.75Z" fill="black"/>
<path d="M197.75 30.75C202.865 30.75 207.127 27.23 208.365 22.5H187.135C188.372 27.23 192.635 30.75 197.75 30.75Z" fill="black"/>
<path d="M257.667 32.7917C256.313 32.7917 255.013 32.575 253.799 32.1742C253.42 32.055 252.998 32.1417 252.694 32.4342L250.311 34.8175C247.245 33.2575 244.732 30.755 243.172 27.6783L245.555 25.2842C245.858 25.0025 245.945 24.58 245.826 24.2008C245.425 22.9875 245.208 21.6875 245.208 20.3333C245.208 19.7375 244.721 19.25 244.125 19.25H240.333C239.738 19.25 239.25 19.7375 239.25 20.3333C239.25 30.5058 247.494 38.75 257.667 38.75C258.263 38.75 258.75 38.2625 258.75 37.6667V33.875C258.75 33.2792 258.263 32.7917 257.667 32.7917ZM256.583 29H258.75C258.75 23.6158 254.384 19.25 249 19.25V21.4167C253.193 21.4167 256.583 24.8075 256.583 29ZM252.25 29H254.417C254.417 26.01 251.99 23.5833 249 23.5833V25.75C250.798 25.75 252.25 27.2017 252.25 29Z" fill="black"/>
<path d="M301 31C306.893 31 311.667 26.2267 311.667 20.3333C311.667 14.44 306.893 9.66666 301 9.66666C295.107 9.66666 290.333 14.44 290.333 20.3333C290.333 26.2267 295.107 31 301 31ZM301 36.3333C293.88 36.3333 279.667 39.9067 279.667 47V52.3333H322.333V47C322.333 39.9067 308.12 36.3333 301 36.3333Z" fill="black"/>
</svg>
